<?xml version="1.0" encoding="UTF-8"?>
<svg width="12px" height="12px" viewBox="0 0 12 12" version="1.1" xmlns="http://www.w3.org/2000/svg" xmlns:xlink="http://www.w3.org/1999/xlink">
    <!-- Generator: Sketch 48.2 (47327) - http://www.bohemiancoding.com/sketch -->
    <title>Combined Shape</title>
    <desc>Created with Sketch.</desc>
    <defs></defs>
    <g id="Page-1" stroke="none" stroke-width="1" fill="none" fill-rule="evenodd">
        <path d="M9.16347487,7.74932371 L11.7273673,10.3132162 C12.1178744,10.7037232 12.1178744,11.3368603 11.7273673,11.7273673 C11.3368603,12.1178744 10.7037232,12.1178744 10.3132162,11.7273673 L7.74327211,9.15742327 C6.95564687,9.67406656 6.01290345,9.97465142 4.99977937,9.97465142 C2.23847747,9.97465142 0,7.74174964 0,4.98732571 C0,2.23290178 2.23847747,-1.77635684e-15 4.99977937,-1.77635684e-15 C7.76108128,-1.77635684e-15 9.99955875,2.23290178 9.99955875,4.98732571 C9.99955875,6.00881389 9.6916955,6.95857585 9.16347487,7.74932371 Z M4.99977937,7.97972114 C6.65656051,7.97972114 7.999647,6.63998007 7.999647,4.98732571 C7.999647,3.33467135 6.65656051,1.99493028 4.99977937,1.99493028 C3.34299823,1.99493028 1.99991175,3.33467135 1.99991175,4.98732571 C1.99991175,6.63998007 3.34299823,7.97972114 4.99977937,7.97972114 Z" id="Combined-Shape" fill="#7C8D9F"></path>
    </g>
</svg>