<?xml version="1.0" encoding="UTF-8"?>
<svg width="78px" height="90px" viewBox="0 0 78 90" version="1.1" xmlns="http://www.w3.org/2000/svg" xmlns:xlink="http://www.w3.org/1999/xlink">
    <!-- Generator: Sketch 50.2 (55047) - http://www.bohemiancoding.com/sketch -->
    <title>alerts</title>
    <desc>Created with Sketch.</desc>
    <defs>
        <path d="M35,54 L43,54 L43,54.004 C43,56.212 41.208,58.004 39,58.004 C36.792,58.004 35,56.212 35,54.004 L35,54 Z M47,45.8696893 C47,47.1696893 47.754,48.3696893 48.916,48.9536893 L50.45,49.7236893 C50.788,49.8936893 51,50.2396893 51,50.6176893 L51,50.9996893 C51,51.5516893 50.552,51.9996893 50,51.9996893 L28,51.9996893 C27.448,51.9996893 27,51.5516893 27,50.9996893 L27,50.6196893 C27,50.2416893 27.214,49.8956893 27.554,49.7256893 L29.114,48.9496893 C30.284,48.3676893 31,47.1736893 31,45.8696893 L31,41.9996893 C31,37.3236893 35.038,33.5816893 39.808,34.0376893 C43.968,34.4336893 47,38.1556893 47,42.3336893 L47,45.8696893 Z" id="path-1"></path>
    </defs>
    <g id="NC-browser-model" stroke="none" stroke-width="1" fill="none" fill-rule="evenodd">
        <g id="Home-Copy-16" transform="translate(-271.000000, -163.000000)">
            <g id="Group" transform="translate(161.000000, 132.000000)">
                <g id="alerts" transform="translate(110.000000, 31.000000)">
                    <path d="M41,1.15470054 L75.9711432,21.3452995 C77.2087475,22.0598306 77.9711432,23.3803387 77.9711432,24.8094011 L77.9711432,65.1905989 C77.9711432,66.6196613 77.2087475,67.9401694 75.9711432,68.6547005 L41,88.8452995 C39.7623957,89.5598306 38.2376043,89.5598306 37,88.8452995 L2.02885683,68.6547005 C0.791252523,67.9401694 0.0288568297,66.6196613 0.0288568297,65.1905989 L0.0288568297,24.8094011 C0.0288568297,23.3803387 0.791252523,22.0598306 2.02885683,21.3452995 L37,1.15470054 C38.2376043,0.440169359 39.7623957,0.440169359 41,1.15470054 Z" id="Polygon" fill="#EBFAF0"></path>
                    <mask id="mask-2" fill="white">
                        <use xlink:href="#path-1"></use>
                    </mask>
                    <use id="Mask" fill="#31BB67" xlink:href="#path-1"></use>
                    <rect id="Rectangle-2-Copy" fill="#68DC8E" mask="url(#mask-2)" x="39" y="34" width="12" height="16"></rect>
                    <rect id="Rectangle-2-Copy-2" fill="#68DC8E" mask="url(#mask-2)" x="39" y="54" width="4" height="4"></rect>
                </g>
            </g>
        </g>
    </g>
</svg>