<?xml version="1.0" encoding="UTF-8"?>
<svg width="78px" height="90px" viewBox="0 0 78 90" version="1.1" xmlns="http://www.w3.org/2000/svg" xmlns:xlink="http://www.w3.org/1999/xlink">
    <!-- Generator: Sketch 50.2 (55047) - http://www.bohemiancoding.com/sketch -->
    <title>Icon - Store</title>
    <desc>Created with Sketch.</desc>
    <defs>
        <path d="M49,46.7101213 L49,56 C49,57.1045695 48.1045695,58 47,58 L31,58 C29.8954305,58 29,57.1045695 29,56 L29,46.7101213 C29.6337094,46.8987225 30.3050274,47 31,47 C31.6949726,47 32.3662906,46.8987225 33,46.7101213 L33,54 L45,54 L45,46.7101213 C45.6337094,46.8987225 46.3050274,47 47,47 C47.6949726,47 48.3662906,46.8987225 49,46.7101213 Z M43,40 C43,42.209139 41.209139,44 39,44 C36.790861,44 35,42.209139 35,40 C35,42.209139 33.209139,44 31,44 C28.790861,44 27,42.209139 27,40 L27,36 C27,34.8954305 27.8954305,34 29,34 L49,34 C50.1045695,34 51,34.8954305 51,36 L51,40 C51,42.209139 49.209139,44 47,44 C44.790861,44 43,42.209139 43,40 Z" id="path-1"></path>
    </defs>
    <g id="Updates" stroke="none" stroke-width="1" fill="none" fill-rule="evenodd">
        <g id="Home--test" transform="translate(-931.000000, -143.000000)">
            <g id="Group-3" transform="translate(820.000000, 112.000000)">
                <g id="Icon---Store" transform="translate(111.000000, 31.000000)">
                    <path d="M41,1.15470054 L75.9711432,21.3452995 C77.2087475,22.0598306 77.9711432,23.3803387 77.9711432,24.8094011 L77.9711432,65.1905989 C77.9711432,66.6196613 77.2087475,67.9401694 75.9711432,68.6547005 L41,88.8452995 C39.7623957,89.5598306 38.2376043,89.5598306 37,88.8452995 L2.02885683,68.6547005 C0.791252523,67.9401694 0.0288568297,66.6196613 0.0288568297,65.1905989 L0.0288568297,24.8094011 C0.0288568297,23.3803387 0.791252523,22.0598306 2.02885683,21.3452995 L37,1.15470054 C38.2376043,0.440169359 39.7623957,0.440169359 41,1.15470054 Z" id="Polygon" fill="#E9F6FE"></path>
                    <mask id="mask-2" fill="white">
                        <use xlink:href="#path-1"></use>
                    </mask>
                    <use id="Mask" fill="#22A5F7" fill-rule="nonzero" xlink:href="#path-1"></use>
                    <rect id="Rectangle-5" fill="#59BCF9" mask="url(#mask-2)" x="27" y="34" width="24" height="10" rx="2"></rect>
                    <rect id="Rectangle-5" fill="#91D2FB" mask="url(#mask-2)" x="27" y="34" width="24" height="4" rx="2"></rect>
                </g>
            </g>
        </g>
    </g>
</svg>