<?xml version="1.0" encoding="UTF-8"?>
<svg width="78px" height="90px" viewBox="0 0 78 90" version="1.1" xmlns="http://www.w3.org/2000/svg" xmlns:xlink="http://www.w3.org/1999/xlink">
    <!-- Generator: Sketch 50.2 (55047) - http://www.bohemiancoding.com/sketch -->
    <title>Group 4</title>
    <desc>Created with Sketch.</desc>
    <defs>
        <path d="M24,5 C24,7.762 21.762,10 19,10 C16.238,10 14,7.762 14,5 C14,2.238 16.238,1.13686838e-11 19,1.13686838e-11 C21.762,1.13686838e-11 24,2.238 24,5 Z M10,19 C10,21.762 7.762,24 5,24 C2.238,24 3.86535248e-12,21.762 3.86535248e-12,19 C3.86535248e-12,16.238 2.238,14 5,14 C7.762,14 10,16.238 10,19 Z M8,1.13686838e-11 C9.104,1.13686838e-11 10,0.894 10,2 C10,3.106 9.104,4 8,4 L5,4 C4.448,4 4,4.448 4,5 L4,8 C4,9.106 3.104,10 2,10 C0.896,10 3.86535248e-12,9.106 3.86535248e-12,8 L3.86535248e-12,4 C3.86535248e-12,1.792 1.792,1.13686838e-11 4,1.13686838e-11 L8,1.13686838e-11 Z M22,14 C23.104,14 24,14.894 24,16 L24,20 C24,22.208 22.208,24 20,24 L16,24 C14.896,24 14,23.106 14,22 C14,20.894 14.896,20 16,20 L19,20 C19.552,20 20,19.552 20,19 L20,16 C20,14.894 20.896,14 22,14 Z" id="path-1"></path>
    </defs>
    <g id="Updates" stroke="none" stroke-width="1" fill="none" fill-rule="evenodd">
        <g id="Home--test" transform="translate(-271.000000, -473.000000)">
            <g id="Group-4" transform="translate(271.000000, 473.000000)">
                <path d="M41,1.15470054 L75.9711432,21.3452995 C77.2087475,22.0598306 77.9711432,23.3803387 77.9711432,24.8094011 L77.9711432,65.1905989 C77.9711432,66.6196613 77.2087475,67.9401694 75.9711432,68.6547005 L41,88.8452995 C39.7623957,89.5598306 38.2376043,89.5598306 37,88.8452995 L2.02885683,68.6547005 C0.791252523,67.9401694 0.0288568297,66.6196613 0.0288568297,65.1905989 L0.0288568297,24.8094011 C0.0288568297,23.3803387 0.791252523,22.0598306 2.02885683,21.3452995 L37,1.15470054 C38.2376043,0.440169359 39.7623957,0.440169359 41,1.15470054 Z" id="Polygon" fill="#E9F6FE"></path>
                <g id="Icon---Group-By" transform="translate(37.000000, 44.000000) rotate(90.000000) translate(-37.000000, -44.000000) translate(25.000000, 32.000000)">
                    <mask id="mask-2" fill="white">
                        <use xlink:href="#path-1"></use>
                    </mask>
                    <use id="Mask" fill="#22A5F7" xlink:href="#path-1"></use>
                    <path d="M3.86535248e-12,1.13686838e-11 L10,1.13686838e-11 L10,2 L5,2 C3.34314575,2 2,3.34314575 2,5 L2,10 L3.86535248e-12,10 L3.86535248e-12,1.13686838e-11 Z" id="Rectangle-6" fill="#59BCF9" mask="url(#mask-2)"></path>
                    <path d="M15,10 L22,10 L22,12 L17,12 C15.3431458,12 14,13.3431458 14,15 L14,20 L12,20 L12,13 C12,11.3431458 13.3431458,10 15,10 Z" id="Rectangle-6" fill="#59BCF9" mask="url(#mask-2)" transform="translate(17.000000, 15.000000) scale(-1, -1) translate(-17.000000, -15.000000) "></path>
                    <polygon id="Rectangle-7" fill="#59BCF9" mask="url(#mask-2)" points="3.86535248e-12 14 10 14 3.86535248e-12 24"></polygon>
                    <polygon id="Rectangle-7-Copy" fill="#59BCF9" mask="url(#mask-2)" points="14 1.13686838e-11 24 1.13686838e-11 14 10"></polygon>
                </g>
            </g>
        </g>
    </g>
</svg>