<?xml version="1.0" encoding="UTF-8"?>
<svg width="60px" height="60px" viewBox="0 0 60 60" version="1.1" xmlns="http://www.w3.org/2000/svg" xmlns:xlink="http://www.w3.org/1999/xlink">
    <!-- Generator: Sketch 50.2 (55047) - http://www.bohemiancoding.com/sketch -->
    <title>Icon - Store</title>
    <desc>Created with Sketch.</desc>
    <defs>
        <path d="M40,30.7101213 L40,40 C40,41.1045695 39.1045695,42 38,42 L22,42 C20.8954305,42 20,41.1045695 20,40 L20,30.7101213 C20.6337094,30.8987225 21.3050274,31 22,31 C22.6949726,31 23.3662906,30.8987225 24,30.7101213 L24,38 L36,38 L36,30.7101213 C36.6337094,30.8987225 37.3050274,31 38,31 C38.6949726,31 39.3662906,30.8987225 40,30.7101213 Z M34,24 C34,26.209139 32.209139,28 30,28 C27.790861,28 26,26.209139 26,24 C26,26.209139 24.209139,28 22,28 C19.790861,28 18,26.209139 18,24 L18,20 C18,18.8954305 18.8954305,18 20,18 L40,18 C41.1045695,18 42,18.8954305 42,20 L42,24 C42,26.209139 40.209139,28 38,28 C35.790861,28 34,26.209139 34,24 Z" id="path-1"></path>
    </defs>
    <g id="v4" stroke="none" stroke-width="1" fill="none" fill-rule="evenodd">
        <g id="Home---Menu" transform="translate(-610.000000, -70.000000)">
            <g id="Dropdown" transform="translate(430.000000, 60.000000)">
                <g id="Group-15" transform="translate(180.000000, 10.000000)">
                    <g id="Icon---Store">
                        <rect id="Backdrop-Copy-2" fill-opacity="0.1" fill="#22A5F7" x="0" y="0" width="60" height="60" rx="4"></rect>
                        <mask id="mask-2" fill="white">
                            <use xlink:href="#path-1"></use>
                        </mask>
                        <use id="Mask" fill="#22A5F7" fill-rule="nonzero" xlink:href="#path-1"></use>
                        <rect id="Rectangle-5" fill="#59BCF9" mask="url(#mask-2)" x="18" y="18" width="24" height="10" rx="2"></rect>
                        <rect id="Rectangle-5" fill="#91D2FB" mask="url(#mask-2)" x="18" y="18" width="24" height="4" rx="2"></rect>
                    </g>
                </g>
            </g>
        </g>
    </g>
</svg>