<?xml version="1.0" encoding="UTF-8"?>
<svg width="78px" height="90px" viewBox="0 0 78 90" version="1.1" xmlns="http://www.w3.org/2000/svg" xmlns:xlink="http://www.w3.org/1999/xlink">
    <!-- Generator: Sketch 50.2 (55047) - http://www.bohemiancoding.com/sketch -->
    <title>Icon - User</title>
    <desc>Created with Sketch.</desc>
    <defs>
        <path d="M32.7993928,48.5232503 C34.4135637,50.0580677 36.5967818,51 39,51 C41.4041417,51 43.5881142,50.0573437 45.2024678,48.5214807 L48.5724788,50.5434873 C50.0785058,51.4471035 51,53.0746376 51,54.8309519 L51,56 C51,57.1045695 50.1045695,58 49,58 L29,58 C27.8954305,58 27,57.1045695 27,56 L27,55 C27,53.1389119 27.9768233,51.4143921 29.5730435,50.4574543 L32.7993928,48.5232503 Z M39,34 C42.3137085,34 45,36.6862915 45,40 L45,42 C45,45.3137085 42.3137085,48 39,48 C35.6862915,48 33,45.3137085 33,42 L33,40 C33,36.6862915 35.6862915,34 39,34 Z" id="path-1"></path>
    </defs>
    <g id="NC-browser-model" stroke="none" stroke-width="1" fill="none" fill-rule="evenodd">
        <g id="Home-Copy-16" transform="translate(-601.000000, -163.000000)">
            <g id="Group-5" transform="translate(490.000000, 132.000000)">
                <g id="Icon---User" transform="translate(111.000000, 31.000000)">
                    <path d="M41,1.15470054 L75.9711432,21.3452995 C77.2087475,22.0598306 77.9711432,23.3803387 77.9711432,24.8094011 L77.9711432,65.1905989 C77.9711432,66.6196613 77.2087475,67.9401694 75.9711432,68.6547005 L41,88.8452995 C39.7623957,89.5598306 38.2376043,89.5598306 37,88.8452995 L2.02885683,68.6547005 C0.791252523,67.9401694 0.0288568297,66.6196613 0.0288568297,65.1905989 L0.0288568297,24.8094011 C0.0288568297,23.3803387 0.791252523,22.0598306 2.02885683,21.3452995 L37,1.15470054 C38.2376043,0.440169359 39.7623957,0.440169359 41,1.15470054 Z" id="Polygon" fill="#EBFAF0"></path>
                    <mask id="mask-2" fill="white">
                        <use xlink:href="#path-1"></use>
                    </mask>
                    <use id="Mask" fill="#31BB67" xlink:href="#path-1"></use>
                    <rect id="Rectangle-2-Copy" fill="#36D068" mask="url(#mask-2)" x="39" y="34" width="12" height="24"></rect>
                </g>
            </g>
        </g>
    </g>
</svg>