<?xml version="1.0" encoding="UTF-8"?>
<svg width="23px" height="20px" viewBox="0 0 23 20" version="1.1" xmlns="http://www.w3.org/2000/svg" xmlns:xlink="http://www.w3.org/1999/xlink">
    <!-- Generator: Sketch 50.2 (55047) - http://www.bohemiancoding.com/sketch -->
    <title>Group-3</title>
    <desc>Created with Sketch.</desc>
    <defs>
        <path d="M12.9230192,0.823709432 L22.3999883,17.250456 C22.853399,18.0363678 22.5838535,19.0410371 21.7979418,19.4944478 C21.5483043,19.6384693 21.2651723,19.7142857 20.9769691,19.7142857 L2.02303085,19.7142857 C1.1157059,19.7142857 0.380173703,18.9787535 0.380173703,18.0714286 C0.380173703,17.7832254 0.45599009,17.5000934 0.600011662,17.250456 L10.0769808,0.823709432 C10.5303915,0.0377976414 11.5350608,-0.231747795 12.3209726,0.221662853 C12.5710739,0.36595208 12.7787299,0.573608106 12.9230192,0.823709432 Z" id="path-1"></path>
        <path d="M12.9230192,0.823709432 L22.3999883,17.250456 C22.853399,18.0363678 22.5838535,19.0410371 21.7979418,19.4944478 C21.5483043,19.6384693 21.2651723,19.7142857 20.9769691,19.7142857 L2.02303085,19.7142857 C1.1157059,19.7142857 0.380173703,18.9787535 0.380173703,18.0714286 C0.380173703,17.7832254 0.45599009,17.5000934 0.600011662,17.250456 L10.0769808,0.823709432 C10.5303915,0.0377976414 11.5350608,-0.231747795 12.3209726,0.221662853 C12.5710739,0.36595208 12.7787299,0.573608106 12.9230192,0.823709432 Z" id="path-3"></path>
    </defs>
    <g id="v4" stroke="none" stroke-width="1" fill="none" fill-rule="evenodd">
        <g id="Prism---Menu" transform="translate(-592.000000, -20.000000)">
            <g id="Logo" transform="translate(588.000000, 20.000000)">
                <g id="Group-3" transform="translate(4.000000, 0.000000)">
                    <g id="Rectangle-8" fill="#37414B" fill-rule="nonzero">
                        <path d="M12.9230192,0.823709432 L22.3999883,17.250456 C22.853399,18.0363678 22.5838535,19.0410371 21.7979418,19.4944478 C21.5483043,19.6384693 21.2651723,19.7142857 20.9769691,19.7142857 L2.02303085,19.7142857 C1.1157059,19.7142857 0.380173703,18.9787535 0.380173703,18.0714286 C0.380173703,17.7832254 0.45599009,17.5000934 0.600011662,17.250456 L10.0769808,0.823709432 C10.5303915,0.0377976414 11.5350608,-0.231747795 12.3209726,0.221662853 C12.5710739,0.36595208 12.7787299,0.573608106 12.9230192,0.823709432 Z" id="path-1"></path>
                    </g>
                    <g id="Rectangle-9-Clipped">
                        <mask id="mask-2" fill="white">
                            <use xlink:href="#path-1"></use>
                        </mask>
                        <g id="path-1"></g>
                        <polygon id="Rectangle-9" fill="#4D5969" fill-rule="nonzero" mask="url(#mask-2)" points="11.5 -1.64285714 11.5 12.3214286 -0.821428571 19.7142857"></polygon>
                    </g>
                    <g id="Rectangle-9-Clipped">
                        <mask id="mask-4" fill="white">
                            <use xlink:href="#path-3"></use>
                        </mask>
                        <g id="path-1"></g>
                        <polygon id="Rectangle-9" fill="#627386" fill-rule="nonzero" mask="url(#mask-4)" points="11.5 -1.64285714 11.5 12.3214286 23.8214286 19.7142857"></polygon>
                    </g>
                </g>
            </g>
        </g>
    </g>
</svg>