<?xml version="1.0" encoding="UTF-8"?>
<svg width="78px" height="90px" viewBox="0 0 78 90" version="1.1" xmlns="http://www.w3.org/2000/svg" xmlns:xlink="http://www.w3.org/1999/xlink">
    <!-- Generator: Sketch 50.2 (55047) - http://www.bohemiancoding.com/sketch -->
    <title>prism</title>
    <desc>Created with Sketch.</desc>
    <defs>
        <path d="M15.269551,1.00088965 L26.8067308,20.998668 C27.358709,21.9554302 27.0305667,23.1785059 26.0738046,23.7304841 C25.7698981,23.9058147 25.4252156,23.9981129 25.0743596,23.9981129 L2,23.9981129 C0.8954305,23.9981129 9.09494702e-13,23.1026824 9.09494702e-13,21.9981129 C9.09494702e-13,21.6472569 0.09229821,21.3025744 0.26762882,20.998668 L11.8048086,1.00088965 C12.3567868,0.0441274655 13.5798625,-0.284014805 14.5366247,0.267963375 C14.8410959,0.443619825 15.0938945,0.696418465 15.269551,1.00088965 Z" id="path-1"></path>
        <path d="M15.269551,1.00088965 L26.8067308,20.998668 C27.358709,21.9554302 27.0305667,23.1785059 26.0738046,23.7304841 C25.7698981,23.9058147 25.4252156,23.9981129 25.0743596,23.9981129 L2,23.9981129 C0.8954305,23.9981129 9.09494702e-13,23.1026824 9.09494702e-13,21.9981129 C9.09494702e-13,21.6472569 0.09229821,21.3025744 0.26762882,20.998668 L11.8048086,1.00088965 C12.3567868,0.0441274655 13.5798625,-0.284014805 14.5366247,0.267963375 C14.8410959,0.443619825 15.0938945,0.696418465 15.269551,1.00088965 Z" id="path-3"></path>
    </defs>
    <g id="Updates" stroke="none" stroke-width="1" fill="none" fill-rule="evenodd">
        <g id="Home--test" transform="translate(-601.000000, -143.000000)">
            <g id="Group-6" transform="translate(490.000000, 112.000000)">
                <g id="prism" transform="translate(111.000000, 31.000000)">
                    <path d="M41,1.15470054 L75.9711432,21.3452995 C77.2087475,22.0598306 77.9711432,23.3803387 77.9711432,24.8094011 L77.9711432,65.1905989 C77.9711432,66.6196613 77.2087475,67.9401694 75.9711432,68.6547005 L41,88.8452995 C39.7623957,89.5598306 38.2376043,89.5598306 37,88.8452995 L2.02885683,68.6547005 C0.791252523,67.9401694 0.0288568297,66.6196613 0.0288568297,65.1905989 L0.0288568297,24.8094011 C0.0288568297,23.3803387 0.791252523,22.0598306 2.02885683,21.3452995 L37,1.15470054 C38.2376043,0.440169359 39.7623957,0.440169359 41,1.15470054 Z" id="Polygon" fill="#E9F6FE"></path>
                    <g id="Rectangle-8" transform="translate(25.000000, 35.000000)" fill="#22A5F7" fill-rule="nonzero">
                        <path d="M15.269551,1.00088965 L26.8067308,20.998668 C27.358709,21.9554302 27.0305667,23.1785059 26.0738046,23.7304841 C25.7698981,23.9058147 25.4252156,23.9981129 25.0743596,23.9981129 L2,23.9981129 C0.8954305,23.9981129 9.09494702e-13,23.1026824 9.09494702e-13,21.9981129 C9.09494702e-13,21.6472569 0.09229821,21.3025744 0.26762882,20.998668 L11.8048086,1.00088965 C12.3567868,0.0441274655 13.5798625,-0.284014805 14.5366247,0.267963375 C14.8410959,0.443619825 15.0938945,0.696418465 15.269551,1.00088965 Z" id="path-1"></path>
                    </g>
                    <g id="Rectangle-9-Clipped" transform="translate(25.000000, 35.000000)">
                        <mask id="mask-2" fill="white">
                            <use xlink:href="#path-1"></use>
                        </mask>
                        <g id="path-1"></g>
                        <polygon id="Rectangle-9" fill="#59BCF9" fill-rule="nonzero" mask="url(#mask-2)" points="14 -2 14 15 -1 24"></polygon>
                    </g>
                    <g id="Rectangle-9-Clipped" transform="translate(25.000000, 35.000000)">
                        <mask id="mask-4" fill="white">
                            <use xlink:href="#path-3"></use>
                        </mask>
                        <g id="path-1"></g>
                        <polygon id="Rectangle-9" fill="#91D2FB" fill-rule="nonzero" mask="url(#mask-4)" points="14 -2 14 15 29 24"></polygon>
                    </g>
                </g>
            </g>
        </g>
    </g>
</svg>