<?xml version="1.0" encoding="UTF-8"?>
<svg width="12px" height="12px" viewBox="0 0 12 12" version="1.1" xmlns="http://www.w3.org/2000/svg" xmlns:xlink="http://www.w3.org/1999/xlink">
    <!-- Generator: Sketch 50.2 (55047) - http://www.bohemiancoding.com/sketch -->
    <title>Icon / Settings</title>
    <desc>Created with Sketch.</desc>
    <defs></defs>
    <g id="Symbols" stroke="none" stroke-width="1" fill="none" fill-rule="evenodd">
        <g id="Card-Alt" transform="translate(-258.000000, -30.000000)" fill="#9AA5B5">
            <g id="Group">
                <g id="Icon-/-Settings" transform="translate(258.000000, 30.000000)">
                    <path d="M7,2.12601749 C7.36702099,2.22048216 7.71365561,2.36572819 8.03196735,2.55381909 L8.82842712,1.75735931 C9.21895142,1.36683502 9.8521164,1.36683502 10.2426407,1.75735931 C10.633165,2.1478836 10.633165,2.78104858 10.2426407,3.17157288 L9.44618091,3.96803265 C9.63427181,4.28634439 9.77951784,4.63297901 9.87398251,5 L11,5 C11.5522847,5 12,5.44771525 12,6 C12,6.55228475 11.5522847,7 11,7 L9.87398251,7 C9.77951784,7.36702099 9.63427181,7.71365561 9.44618091,8.03196735 L10.2426407,8.82842712 C10.633165,9.21895142 10.633165,9.8521164 10.2426407,10.2426407 C9.8521164,10.633165 9.21895142,10.633165 8.82842712,10.2426407 L8.03196735,9.44618091 C7.71365561,9.63427181 7.36702099,9.77951784 7,9.87398251 L7,11 C7,11.5522847 6.55228475,12 6,12 C5.44771525,12 5,11.5522847 5,11 L5,9.87398251 C4.63297901,9.77951784 4.28634439,9.63427181 3.96803265,9.44618091 L3.17157288,10.2426407 C2.78104858,10.633165 2.1478836,10.633165 1.75735931,10.2426407 C1.36683502,9.8521164 1.36683502,9.21895142 1.75735931,8.82842712 L2.55381909,8.03196735 C2.36572819,7.71365561 2.22048216,7.36702099 2.12601749,7 L1,7 C0.44771525,7 0,6.55228475 0,6 C0,5.44771525 0.44771525,5 1,5 L2.12601749,5 C2.22048216,4.63297901 2.36572819,4.28634439 2.55381909,3.96803265 L1.75735931,3.17157288 C1.36683502,2.78104858 1.36683502,2.1478836 1.75735931,1.75735931 C2.1478836,1.36683502 2.78104858,1.36683502 3.17157288,1.75735931 L3.96803265,2.55381909 C4.28634439,2.36572819 4.63297901,2.22048216 5,2.12601749 L5,1 C5,0.44771525 5.44771525,1.01453063e-16 6,0 C6.55228475,-1.01453063e-16 7,0.44771525 7,1 L7,2.12601749 Z M6,8 C7.1045695,8 8,7.1045695 8,6 C8,4.8954305 7.1045695,4 6,4 C4.8954305,4 4,4.8954305 4,6 C4,7.1045695 4.8954305,8 6,8 Z" id="Combined-Shape"></path>
                </g>
            </g>
        </g>
    </g>
</svg>