<?xml version="1.0" encoding="UTF-8"?>
<svg width="12px" height="12px" viewBox="0 0 12 12" version="1.1" xmlns="http://www.w3.org/2000/svg" xmlns:xlink="http://www.w3.org/1999/xlink">
    <!-- Generator: Sketch 50.2 (55047) - http://www.bohemiancoding.com/sketch -->
    <title>Mask</title>
    <desc>Created with Sketch.</desc>
    <defs></defs>
    <g id="Symbols" stroke="none" stroke-width="1" fill="none" fill-rule="evenodd">
        <g id="Card-Alt" transform="translate(-30.000000, -30.000000)" fill="#D5DAE0">
            <g id="Group">
                <path d="M38.2012272,36.649 C38.0962272,36.752 38.0482272,36.899 38.0732272,37.045 L38.5132272,39.611 L36.2082272,38.399 C36.0772272,38.331 35.9222272,38.331 35.7922272,38.399 L33.4872272,39.611 L33.9272272,37.045 C33.9522272,36.899 33.9042272,36.752 33.7992272,36.649 L31.9342272,34.831 L34.5112272,34.457 C34.6572272,34.435 34.7822272,34.344 34.8472272,34.212 L36.0002272,31.878 L37.1522272,34.212 C37.2182272,34.344 37.3432272,34.435 37.4892272,34.457 L40.0662272,34.831 L38.2012272,36.649 Z M41.7662272,35.121 C41.9782272,34.916 42.0532272,34.613 41.9622272,34.332 C41.8702272,34.05 41.6322272,33.85 41.3392272,33.807 L38.2522272,33.359 C38.1732272,33.347 38.1072272,33.298 38.0722272,33.227 L36.6912272,30.43 C36.5612272,30.165 36.2962272,30 35.9992272,30 C35.7042272,30 35.4392272,30.165 35.3082272,30.43 L33.9282272,33.227 C33.8932272,33.298 33.8262272,33.347 33.7472272,33.359 L30.6602272,33.807 C30.3682272,33.85 30.1302272,34.05 30.0382272,34.332 C29.9472272,34.613 30.0212272,34.916 30.2332272,35.121 L32.4672272,37.298 C32.5242272,37.354 32.5502272,37.433 32.5362272,37.511 L32.0102272,40.586 C31.9592272,40.877 32.0762272,41.166 32.3152272,41.339 C32.4502272,41.438 32.6092272,41.487 32.7682272,41.487 C32.8902272,41.487 33.0142272,41.459 33.1272272,41.398 L35.8882272,39.947 C35.9552272,39.91 36.0412272,39.909 36.1122272,39.947 L38.8732272,41.397 C39.1322272,41.536 39.4452272,41.514 39.6842272,41.339 C39.9242272,41.166 40.0412272,40.877 39.9902272,40.587 L39.4632272,37.51 C39.4502272,37.433 39.4752272,37.354 39.5332272,37.298 L41.7662272,35.121 Z" id="Mask"></path>
            </g>
        </g>
    </g>
</svg>