<?xml version="1.0" encoding="UTF-8"?>
<svg width="14px" height="14px" viewBox="0 0 16 16" version="1.1" xmlns="http://www.w3.org/2000/svg" xmlns:xlink="http://www.w3.org/1999/xlink">
    <!-- Generator: Sketch 50.2 (55047) - http://www.bohemiancoding.com/sketch -->
    <title>Icon - Tasks</title>
    <desc>Created with Sketch.</desc>
    <defs></defs>
    <g id="Updates" stroke="none" stroke-width="1" fill="none" fill-rule="evenodd">
        <g id="all-in-one-1-copy-3" transform="translate(-1090.000000, -22.000000)">
            <g id="Page-With-Sidebar">
                <g id="Header">
                    <g id="Right" transform="translate(1026.000000, 20.000000)">
                        <g id="Tasks" transform="translate(64.000000, 0.000000)">
                            <g id="Icon---Tasks" transform="translate(0.000000, 2.000000)">
                                <path d="M8,16 C3.581722,16 0,12.418278 0,8 C0,3.581722 3.581722,0 8,0 C12.418278,0 16,3.581722 16,8 C16,12.418278 12.418278,16 8,16 Z" id="Oval-2" fill="#22A5F7"></path>
                                <path d="M8,12 C10.209139,12 12,10.209139 12,8 C12,5.790861 10.209139,4 8,4 C5.790861,4 4,5.790861 4,8 C4,10.209139 5.790861,12 8,12 Z" id="Oval-2" fill="#FFFFFF"></path>
                                <rect id="Rectangle-5" fill="#FFFFFF" opacity="0.7" x="0" y="0" width="8" height="8"></rect>
                            </g>
                        </g>
                    </g>
                </g>
            </g>
        </g>
    </g>
</svg>