<?xml version="1.0" encoding="UTF-8"?>
<svg width="78px" height="90px" viewBox="0 0 78 90" version="1.1" xmlns="http://www.w3.org/2000/svg" xmlns:xlink="http://www.w3.org/1999/xlink">
    <!-- Generator: Sketch 50.2 (55047) - http://www.bohemiancoding.com/sketch -->
    <title>Group 11</title>
    <desc>Created with Sketch.</desc>
    <defs>
        <path d="M43,47.5256878 L43,56.5 C43,57.3284271 42.3284271,58 41.5,58 L36.5,58 C35.6715729,58 35,57.3284271 35,56.5 L35,47.5256878 L29,47.5256878 C28.4477153,47.5256878 28,47.0779726 28,46.5256878 C28,46.2742978 28.0946837,46.03213 28.2651966,45.8474077 L37.9812115,35.3217249 C38.3558152,34.9159042 38.9884743,34.8905978 39.394295,35.2652015 C39.413882,35.2832818 39.4327381,35.302138 39.4508184,35.3217249 L49.1668333,45.8474077 C49.541437,46.2532285 49.5161307,46.8858875 49.1103099,47.2604913 C48.9255877,47.4310041 48.6834199,47.5256878 48.4320298,47.5256878 L43,47.5256878 Z" id="path-1"></path>
    </defs>
    <g id="NC-browser-model" stroke="none" stroke-width="1" fill="none" fill-rule="evenodd">
        <g id="Home-Copy-16" transform="translate(-933.000000, -163.000000)">
            <g id="Group-7" transform="translate(820.000000, 132.000000)">
                <g id="Group-11" transform="translate(113.000000, 31.000000)">
                    <path d="M41,1.15470054 L75.9711432,21.3452995 C77.2087475,22.0598306 77.9711432,23.3803387 77.9711432,24.8094011 L77.9711432,65.1905989 C77.9711432,66.6196613 77.2087475,67.9401694 75.9711432,68.6547005 L41,88.8452995 C39.7623957,89.5598306 38.2376043,89.5598306 37,88.8452995 L2.02885683,68.6547005 C0.791252523,67.9401694 0.0288568297,66.6196613 0.0288568297,65.1905989 L0.0288568297,24.8094011 C0.0288568297,23.3803387 0.791252523,22.0598306 2.02885683,21.3452995 L37,1.15470054 C38.2376043,0.440169359 39.7623957,0.440169359 41,1.15470054 Z" id="Polygon" fill="#EBFAF0"></path>
                    <mask id="mask-2" fill="white">
                        <use xlink:href="#path-1"></use>
                    </mask>
                    <use id="Combined-Shape" fill="#31BB67" xlink:href="#path-1"></use>
                    <polygon id="Rectangle-2" fill="#36D068" mask="url(#mask-2)" points="39 34 50 34 50 58 43 58 39 54"></polygon>
                </g>
            </g>
        </g>
    </g>
</svg>